<svg width="341" height="78" viewBox="0 0 341 78" fill="none" xmlns="http://www.w3.org/2000/svg">
<g filter="url(#filter0_d_18_6)">
<rect x="6" y="2" width="329" height="66" rx="8" fill="#F5A1E3" stroke="#F5A1E3" stroke-width="4"/>
<path d="M159.073 48.0117C158.257 48.0117 157.693 47.6997 157.381 47.0757C157.093 46.4277 156.925 45.4077 156.877 44.0157L157.237 44.1957C155.893 46.8117 153.349 48.1197 149.605 48.1197C147.901 48.1197 146.485 47.8197 145.357 47.2197C144.229 46.5957 143.389 45.7797 142.837 44.7717C142.309 43.7397 142.045 42.6237 142.045 41.4237C142.045 39.3597 142.765 37.7277 144.205 36.5277C145.645 35.3037 147.553 34.6917 149.929 34.6917C151.489 34.6917 152.845 34.9197 153.997 35.3757C155.149 35.8317 156.133 36.4677 156.949 37.2837L156.337 37.2117C156.169 34.7877 155.641 33.0597 154.753 32.0277C153.889 30.9717 152.653 30.4437 151.045 30.4437C150.109 30.4437 149.245 30.5877 148.453 30.8757C147.661 31.1637 146.929 31.4637 146.257 31.7757C145.609 32.0637 144.997 32.2077 144.421 32.2077C143.845 32.2077 143.389 32.0157 143.053 31.6317C142.741 31.2477 142.585 30.7557 142.585 30.1557C142.585 29.2917 142.993 28.4757 143.809 27.7077C144.649 26.9397 145.753 26.3157 147.121 25.8357C148.489 25.3557 149.977 25.1157 151.585 25.1157C153.529 25.1157 155.197 25.5837 156.589 26.5197C157.981 27.4557 159.037 28.8237 159.757 30.6237C160.381 32.1597 160.825 33.8757 161.089 35.7717C161.353 37.6677 161.485 39.6957 161.485 41.8557C161.485 43.4877 161.401 44.7477 161.233 45.6357C161.065 46.5237 160.801 47.1477 160.441 47.5077C160.105 47.8437 159.649 48.0117 159.073 48.0117ZM151.117 43.9797C151.909 43.9797 152.713 43.8717 153.529 43.6557C154.345 43.4157 155.029 43.0677 155.581 42.6117C156.133 42.1557 156.409 41.5917 156.409 40.9197C156.409 40.3437 156.169 39.8757 155.689 39.5157C155.233 39.1317 154.621 38.8437 153.853 38.6517C153.109 38.4597 152.305 38.3637 151.441 38.3637C149.977 38.3637 148.861 38.6157 148.093 39.1197C147.349 39.6237 146.977 40.2957 146.977 41.1357C146.977 42.0477 147.325 42.7557 148.021 43.2597C148.741 43.7397 149.773 43.9797 151.117 43.9797ZM165.876 31.4157C165.876 29.1117 166.092 27.4557 166.524 26.4477C166.956 25.4157 167.568 24.8997 168.36 24.8997C168.984 24.8997 169.476 25.1637 169.836 25.6917C170.196 26.1957 170.46 26.8317 170.628 27.5997C170.796 28.3437 170.88 29.0997 170.88 29.8677L170.7 29.7957C171.108 28.4997 171.732 27.3837 172.572 26.4477C173.436 25.5117 174.468 25.0437 175.668 25.0437C177.084 25.0437 178.128 25.6317 178.8 26.8077C179.472 27.9597 179.808 29.3997 179.808 31.1277C179.808 33.4317 179.544 35.0397 179.016 35.9517C178.488 36.8637 177.78 37.3197 176.892 37.3197C176.244 37.3197 175.764 37.0557 175.452 36.5277C175.164 35.9997 175.068 35.0637 175.164 33.7197C175.26 32.3037 175.176 31.3197 174.912 30.7677C174.648 30.2157 174.228 29.9397 173.652 29.9397C172.956 29.9397 172.38 30.3837 171.924 31.2717C171.492 32.1357 171.276 33.2037 171.276 34.4757C171.276 34.9797 171.336 35.6157 171.456 36.3837C171.576 37.1517 171.708 37.9917 171.852 38.9037C171.996 39.7917 172.128 40.6797 172.248 41.5677C172.368 42.4557 172.428 43.2717 172.428 44.0157C172.428 45.3357 172.224 46.2837 171.816 46.8597C171.408 47.4357 170.832 47.7237 170.088 47.7237C169.248 47.7237 168.6 47.4597 168.144 46.9317C167.688 46.3797 167.34 45.4917 167.1 44.2677C166.908 43.1637 166.716 41.8557 166.524 40.3437C166.332 38.8317 166.176 37.2837 166.056 35.6997C165.936 34.1157 165.876 32.6877 165.876 31.4157ZM189.081 25.9797H188.361C188.289 24.9237 188.313 23.9277 188.433 22.9917C188.553 22.0317 188.805 21.2637 189.189 20.6877C189.597 20.0877 190.173 19.7877 190.917 19.7877C191.589 19.7877 192.081 20.0037 192.393 20.4357C192.705 20.8677 192.861 21.4677 192.861 22.2357C192.861 23.7477 192.573 25.0437 191.997 26.1237L191.349 26.0517C192.645 25.5957 194.109 25.3677 195.741 25.3677C196.773 25.3677 197.589 25.5717 198.189 25.9797C198.813 26.3637 199.125 27.0237 199.125 27.9597C199.125 28.8477 198.765 29.5197 198.045 29.9757C197.325 30.4317 196.425 30.6597 195.345 30.6597C194.697 30.6597 194.001 30.6357 193.257 30.5877C192.537 30.5157 191.829 30.4077 191.133 30.2637L191.745 29.5077C191.961 30.4197 192.165 31.4637 192.357 32.6397C192.573 33.7917 192.765 34.9917 192.933 36.2397C193.101 37.4877 193.233 38.6997 193.329 39.8757C193.425 41.0517 193.473 42.1077 193.473 43.0437C193.473 44.5797 193.233 45.7917 192.753 46.6797C192.273 47.5677 191.565 48.0117 190.629 48.0117C189.885 48.0117 189.297 47.7837 188.865 47.3277C188.457 46.8717 188.157 46.2957 187.965 45.5997C187.797 44.8797 187.689 44.1357 187.641 43.3677C187.617 42.5997 187.605 41.9037 187.605 41.2797C187.605 40.2237 187.653 39.0357 187.749 37.7157C187.845 36.3717 187.977 34.9917 188.145 33.5757C188.337 32.1597 188.553 30.7917 188.793 29.4717L189.513 30.0837C188.289 30.7077 186.777 31.0197 184.977 31.0197C183.873 31.0197 183.021 30.8157 182.421 30.4077C181.821 29.9997 181.521 29.3637 181.521 28.4997C181.521 27.5637 181.857 26.8437 182.529 26.3397C183.201 25.8117 184.101 25.5477 185.229 25.5477C185.973 25.5477 186.669 25.5957 187.317 25.6917C187.989 25.7637 188.577 25.8597 189.081 25.9797Z" fill="white"/>
</g>
<defs>
<filter id="filter0_d_18_6" x="0" y="0" width="341" height="78" filterUnits="userSpaceOnUse" color-interpolation-filters="sRGB">
<feFlood flood-opacity="0" result="BackgroundImageFix"/>
<feColorMatrix in="SourceAlpha" type="matrix" values="0 0 0 0 0 0 0 0 0 0 0 0 0 0 0 0 0 0 127 0" result="hardAlpha"/>
<feOffset dy="4"/>
<feGaussianBlur stdDeviation="2"/>
<feComposite in2="hardAlpha" operator="out"/>
<feColorMatrix type="matrix" values="0 0 0 0 0 0 0 0 0 0 0 0 0 0 0 0 0 0 0.25 0"/>
<feBlend mode="normal" in2="BackgroundImageFix" result="effect1_dropShadow_18_6"/>
<feBlend mode="normal" in="SourceGraphic" in2="effect1_dropShadow_18_6" result="shape"/>
</filter>
</defs>
</svg>
