<svg width="341" height="78" viewBox="0 0 341 78" fill="none" xmlns="http://www.w3.org/2000/svg">
<g filter="url(#filter0_d_1_24)">
<rect x="6" y="2" width="329" height="66" rx="8" fill="#F5A1E3" stroke="#F5A1E3" stroke-width="4"/>
<path d="M115.078 49.9717C112.118 49.9717 109.758 49.5317 107.998 48.6517C106.238 47.7717 104.971 46.505 104.198 44.8517C103.424 43.1983 103.038 41.225 103.038 38.9317C103.038 36.025 103.571 33.5583 104.638 31.5317C105.731 29.4783 107.224 27.905 109.118 26.8117C111.037 25.7183 113.211 25.1717 115.638 25.1717C118.491 25.1717 120.584 25.8383 121.918 27.1717C123.251 28.4783 123.918 30.1983 123.918 32.3317C123.918 34.0383 123.464 35.5183 122.557 36.7717C121.678 37.9983 120.451 38.945 118.878 39.6117C117.304 40.2783 115.491 40.6117 113.438 40.6117C112.291 40.6117 111.184 40.465 110.118 40.1717C109.051 39.8783 108.091 39.4783 107.238 38.9717L108.198 37.2117C108.118 37.8517 108.078 38.4917 108.078 39.1317C108.078 40.9983 108.664 42.345 109.838 43.1717C111.011 43.9717 112.678 44.3717 114.838 44.3717C116.518 44.3717 117.864 44.225 118.878 43.9317C119.891 43.6383 120.744 43.3583 121.438 43.0917C122.131 42.7983 122.811 42.6517 123.477 42.6517C123.851 42.6517 124.184 42.7583 124.478 42.9717C124.798 43.1583 125.051 43.4383 125.238 43.8117C125.451 44.185 125.558 44.6383 125.558 45.1717C125.558 45.9717 125.158 46.745 124.358 47.4917C123.558 48.2117 122.371 48.8117 120.798 49.2917C119.251 49.745 117.344 49.9717 115.078 49.9717ZM112.758 36.8917C114.651 36.8917 116.171 36.4917 117.318 35.6917C118.464 34.8917 119.038 33.905 119.038 32.7317C119.038 31.7983 118.718 31.0383 118.078 30.4517C117.464 29.8383 116.491 29.5317 115.158 29.5317C113.904 29.5317 112.771 29.7717 111.758 30.2517C110.771 30.705 109.998 31.305 109.438 32.0517C108.878 32.7983 108.598 33.6117 108.598 34.4917C108.598 35.265 108.958 35.865 109.678 36.2917C110.424 36.6917 111.451 36.8917 112.758 36.8917ZM139.193 24.6117C141.566 24.6117 143.273 24.9583 144.313 25.6517C145.353 26.345 145.873 27.2383 145.873 28.3317C145.873 28.9717 145.646 29.505 145.193 29.9317C144.766 30.3317 144.153 30.5317 143.353 30.5317C142.526 30.5317 141.659 30.4117 140.753 30.1717C139.873 29.9317 138.846 29.8117 137.673 29.8117C136.313 29.8117 135.299 30.0783 134.633 30.6117C133.966 31.145 133.633 31.825 133.633 32.6517C133.633 33.425 133.926 34.0383 134.513 34.4917C135.126 34.9183 136.286 35.2383 137.993 35.4517C139.886 35.665 141.446 36.0117 142.673 36.4917C143.926 36.945 144.859 37.6383 145.473 38.5717C146.086 39.4783 146.393 40.7317 146.393 42.3317C146.393 44.865 145.499 46.745 143.713 47.9717C141.926 49.1983 139.459 49.8117 136.313 49.8117C134.313 49.8117 132.726 49.6517 131.553 49.3317C130.379 49.0117 129.526 48.5583 128.993 47.9717C128.486 47.385 128.233 46.6917 128.233 45.8917C128.233 45.1983 128.459 44.665 128.913 44.2917C129.393 43.8917 129.953 43.6917 130.593 43.6917C131.206 43.6917 131.859 43.7717 132.553 43.9317C133.246 44.065 133.979 44.2117 134.753 44.3717C135.526 44.5317 136.326 44.6117 137.153 44.6117C139.819 44.6117 141.153 43.785 141.153 42.1317C141.153 41.5717 141.019 41.1183 140.753 40.7717C140.486 40.425 140.006 40.145 139.313 39.9317C138.619 39.6917 137.606 39.505 136.273 39.3717C134.673 39.2117 133.286 38.945 132.113 38.5717C130.939 38.1717 130.033 37.5317 129.393 36.6517C128.753 35.745 128.433 34.505 128.433 32.9317C128.433 30.4517 129.366 28.4517 131.233 26.9317C133.099 25.385 135.753 24.6117 139.193 24.6117ZM160.56 24.6117C162.933 24.6117 164.64 24.9583 165.68 25.6517C166.72 26.345 167.24 27.2383 167.24 28.3317C167.24 28.9717 167.013 29.505 166.56 29.9317C166.133 30.3317 165.52 30.5317 164.72 30.5317C163.893 30.5317 163.027 30.4117 162.12 30.1717C161.24 29.9317 160.213 29.8117 159.04 29.8117C157.68 29.8117 156.667 30.0783 156 30.6117C155.333 31.145 155 31.825 155 32.6517C155 33.425 155.293 34.0383 155.88 34.4917C156.493 34.9183 157.653 35.2383 159.36 35.4517C161.253 35.665 162.813 36.0117 164.04 36.4917C165.293 36.945 166.227 37.6383 166.84 38.5717C167.453 39.4783 167.76 40.7317 167.76 42.3317C167.76 44.865 166.867 46.745 165.08 47.9717C163.293 49.1983 160.827 49.8117 157.68 49.8117C155.68 49.8117 154.093 49.6517 152.92 49.3317C151.747 49.0117 150.893 48.5583 150.36 47.9717C149.853 47.385 149.6 46.6917 149.6 45.8917C149.6 45.1983 149.827 44.665 150.28 44.2917C150.76 43.8917 151.32 43.6917 151.96 43.6917C152.573 43.6917 153.227 43.7717 153.92 43.9317C154.613 44.065 155.347 44.2117 156.12 44.3717C156.893 44.5317 157.693 44.6117 158.52 44.6117C161.187 44.6117 162.52 43.785 162.52 42.1317C162.52 41.5717 162.387 41.1183 162.12 40.7717C161.853 40.425 161.373 40.145 160.68 39.9317C159.987 39.6917 158.973 39.505 157.64 39.3717C156.04 39.2117 154.653 38.945 153.48 38.5717C152.307 38.1717 151.4 37.5317 150.76 36.6517C150.12 35.745 149.8 34.505 149.8 32.9317C149.8 30.4517 150.733 28.4517 152.6 26.9317C154.467 25.385 157.12 24.6117 160.56 24.6117ZM189.287 50.0517C188.381 50.0517 187.754 49.705 187.407 49.0117C187.087 48.2917 186.901 47.1583 186.847 45.6117L187.247 45.8117C185.754 48.7183 182.927 50.1717 178.767 50.1717C176.874 50.1717 175.301 49.8383 174.047 49.1717C172.794 48.4783 171.861 47.5717 171.247 46.4517C170.661 45.305 170.367 44.065 170.367 42.7317C170.367 40.4383 171.167 38.625 172.767 37.2917C174.367 35.9317 176.487 35.2517 179.127 35.2517C180.861 35.2517 182.367 35.505 183.647 36.0117C184.927 36.5183 186.021 37.225 186.927 38.1317L186.247 38.0517C186.061 35.3583 185.474 33.4383 184.487 32.2917C183.527 31.1183 182.154 30.5317 180.367 30.5317C179.327 30.5317 178.367 30.6917 177.487 31.0117C176.607 31.3317 175.794 31.665 175.047 32.0117C174.327 32.3317 173.647 32.4917 173.007 32.4917C172.367 32.4917 171.861 32.2783 171.487 31.8517C171.141 31.425 170.967 30.8783 170.967 30.2117C170.967 29.2517 171.421 28.345 172.327 27.4917C173.261 26.6383 174.487 25.945 176.007 25.4117C177.527 24.8783 179.181 24.6117 180.967 24.6117C183.127 24.6117 184.981 25.1317 186.527 26.1717C188.074 27.2117 189.247 28.7317 190.047 30.7317C190.741 32.4383 191.234 34.345 191.527 36.4517C191.821 38.5583 191.967 40.8117 191.967 43.2117C191.967 45.025 191.874 46.425 191.687 47.4117C191.501 48.3983 191.207 49.0917 190.807 49.4917C190.434 49.865 189.927 50.0517 189.287 50.0517ZM180.447 45.5717C181.327 45.5717 182.221 45.4517 183.127 45.2117C184.034 44.945 184.794 44.5583 185.407 44.0517C186.021 43.545 186.327 42.9183 186.327 42.1717C186.327 41.5317 186.061 41.0117 185.527 40.6117C185.021 40.185 184.341 39.865 183.487 39.6517C182.661 39.4383 181.767 39.3317 180.807 39.3317C179.181 39.3317 177.941 39.6117 177.087 40.1717C176.261 40.7317 175.847 41.4783 175.847 42.4117C175.847 43.425 176.234 44.2117 177.007 44.7717C177.807 45.305 178.954 45.5717 180.447 45.5717ZM200.025 57.6117C198.585 57.6117 197.865 56.8383 197.865 55.2917C197.865 54.4383 198.158 53.425 198.745 52.2517C199.332 51.0783 200.185 49.8117 201.305 48.4517C202.452 47.0917 203.838 45.705 205.465 44.2917L205.425 44.6117C201.878 41.0917 199.185 37.9983 197.345 35.3317C195.532 32.665 194.625 30.3583 194.625 28.4117C194.625 27.4517 194.865 26.705 195.345 26.1717C195.852 25.6383 196.518 25.3717 197.345 25.3717C199.105 25.3717 200.852 26.6517 202.585 29.2117C204.318 31.7717 205.958 35.665 207.505 40.8917H207.665C208.678 35.3983 209.758 31.3717 210.905 28.8117C212.052 26.225 213.412 24.9317 214.985 24.9317C215.732 24.9317 216.278 25.1983 216.625 25.7317C216.998 26.2383 217.185 26.9583 217.185 27.8917C217.185 28.665 217.012 29.6917 216.665 30.9717C216.345 32.225 215.878 33.6517 215.265 35.2517C214.678 36.825 213.985 38.465 213.185 40.1717C212.412 41.8783 211.558 43.5583 210.625 45.2117C208.252 49.505 206.225 52.6383 204.545 54.6117C202.865 56.6117 201.358 57.6117 200.025 57.6117ZM230.755 24.6117C233.129 24.6117 234.835 24.9583 235.875 25.6517C236.915 26.345 237.435 27.2383 237.435 28.3317C237.435 28.9717 237.209 29.505 236.755 29.9317C236.329 30.3317 235.715 30.5317 234.915 30.5317C234.089 30.5317 233.222 30.4117 232.315 30.1717C231.435 29.9317 230.409 29.8117 229.235 29.8117C227.875 29.8117 226.862 30.0783 226.195 30.6117C225.529 31.145 225.195 31.825 225.195 32.6517C225.195 33.425 225.489 34.0383 226.075 34.4917C226.689 34.9183 227.849 35.2383 229.555 35.4517C231.449 35.665 233.009 36.0117 234.235 36.4917C235.489 36.945 236.422 37.6383 237.035 38.5717C237.649 39.4783 237.955 40.7317 237.955 42.3317C237.955 44.865 237.062 46.745 235.275 47.9717C233.489 49.1983 231.022 49.8117 227.875 49.8117C225.875 49.8117 224.289 49.6517 223.115 49.3317C221.942 49.0117 221.089 48.5583 220.555 47.9717C220.049 47.385 219.795 46.6917 219.795 45.8917C219.795 45.1983 220.022 44.665 220.475 44.2917C220.955 43.8917 221.515 43.6917 222.155 43.6917C222.769 43.6917 223.422 43.7717 224.115 43.9317C224.809 44.065 225.542 44.2117 226.315 44.3717C227.089 44.5317 227.889 44.6117 228.715 44.6117C231.382 44.6117 232.715 43.785 232.715 42.1317C232.715 41.5717 232.582 41.1183 232.315 40.7717C232.049 40.425 231.569 40.145 230.875 39.9317C230.182 39.6917 229.169 39.505 227.835 39.3717C226.235 39.2117 224.849 38.945 223.675 38.5717C222.502 38.1717 221.595 37.5317 220.955 36.6517C220.315 35.745 219.995 34.505 219.995 32.9317C219.995 30.4517 220.929 28.4517 222.795 26.9317C224.662 25.385 227.315 24.6117 230.755 24.6117Z" fill="white"/>
<a href="https://docs.google.com/document/d/1xxsyYlwgNJI4z7HxfZrmbZ2mECIYBMIA7fmWoxuB_zQ/edit?usp=sharing">
<rect fill="black" fill-opacity="0" x="97.4375" y="2.34832" width="138.118" height="48"/>
</a>
</g>
<defs>
<filter id="filter0_d_1_24" x="0" y="0" width="341" height="78" filterUnits="userSpaceOnUse" color-interpolation-filters="sRGB">
<feFlood flood-opacity="0" result="BackgroundImageFix"/>
<feColorMatrix in="SourceAlpha" type="matrix" values="0 0 0 0 0 0 0 0 0 0 0 0 0 0 0 0 0 0 127 0" result="hardAlpha"/>
<feOffset dy="4"/>
<feGaussianBlur stdDeviation="2"/>
<feComposite in2="hardAlpha" operator="out"/>
<feColorMatrix type="matrix" values="0 0 0 0 0 0 0 0 0 0 0 0 0 0 0 0 0 0 0.25 0"/>
<feBlend mode="normal" in2="BackgroundImageFix" result="effect1_dropShadow_1_24"/>
<feBlend mode="normal" in="SourceGraphic" in2="effect1_dropShadow_1_24" result="shape"/>
</filter>
</defs>
</svg>
