<svg width="341" height="78" viewBox="0 0 341 78" fill="none" xmlns="http://www.w3.org/2000/svg">
<g filter="url(#filter0_d_20_8)">
<rect x="6" y="2" width="329" height="66" rx="8" fill="#F5A1E3" stroke="#F5A1E3" stroke-width="4"/>
<path d="M140.205 47.4357C139.557 47.4357 139.053 47.2197 138.693 46.7877C138.357 46.3317 138.129 45.7557 138.009 45.0597C137.889 44.3397 137.829 43.5837 137.829 42.7917L138.009 42.6477C137.769 43.6797 137.301 44.5677 136.605 45.3117C135.909 46.0557 135.105 46.6317 134.193 47.0397C133.281 47.4237 132.369 47.6157 131.457 47.6157C130.233 47.6157 129.117 47.3277 128.109 46.7517C127.101 46.1757 126.321 45.2877 125.769 44.0877C125.217 42.8157 124.785 41.2197 124.473 39.2997C124.161 37.3557 124.005 35.3637 124.005 33.3237C124.005 32.2197 124.053 31.1997 124.149 30.2637C124.245 29.3277 124.401 28.5597 124.617 27.9597C124.809 27.3357 125.097 26.8797 125.481 26.5917C125.865 26.2797 126.357 26.1237 126.957 26.1237C127.653 26.1237 128.193 26.3997 128.577 26.9517C128.985 27.4797 129.237 28.2237 129.333 29.1837C129.429 29.9757 129.489 30.9597 129.513 32.1357C129.561 33.2877 129.597 34.4517 129.621 35.6277C129.669 36.7797 129.729 37.7517 129.801 38.5437C129.945 39.9837 130.317 41.0517 130.917 41.7477C131.517 42.4197 132.249 42.7557 133.113 42.7557C134.385 42.7557 135.357 42.2757 136.029 41.3157C136.701 40.3557 137.037 39.0117 137.037 37.2837C137.037 36.4197 136.989 35.4477 136.893 34.3677C136.797 33.2637 136.689 32.1957 136.569 31.1637C136.473 30.1317 136.425 29.2797 136.425 28.6077C136.425 27.4797 136.617 26.6757 137.001 26.1957C137.385 25.6917 137.913 25.4397 138.585 25.4397C139.161 25.4397 139.641 25.5957 140.025 25.9077C140.433 26.2197 140.757 26.6517 140.997 27.2037C141.333 27.9237 141.621 28.9077 141.861 30.1557C142.101 31.4037 142.293 32.8197 142.437 34.4037C142.581 35.9877 142.653 37.6557 142.653 39.4077C142.653 42.0957 142.473 44.1117 142.113 45.4557C141.753 46.7757 141.117 47.4357 140.205 47.4357ZM150.2 20.0397C151.16 20.0397 151.844 20.3037 152.252 20.8317C152.684 21.3597 152.9 21.9717 152.9 22.6677C152.9 23.5317 152.636 24.2037 152.108 24.6837C151.604 25.1397 150.884 25.3677 149.948 25.3677C149.036 25.3677 148.352 25.1157 147.896 24.6117C147.44 24.0837 147.212 23.4717 147.212 22.7757C147.212 21.8637 147.488 21.1797 148.04 20.7237C148.592 20.2677 149.312 20.0397 150.2 20.0397ZM150.416 28.0677C151.184 28.0677 151.784 28.7877 152.216 30.2277C152.672 31.6677 152.9 33.9597 152.9 37.1037C152.9 40.9677 152.624 43.7517 152.072 45.4557C151.52 47.1597 150.68 48.0117 149.552 48.0117C148.688 48.0117 148.052 47.3877 147.644 46.1397C147.236 44.8677 147.032 42.6597 147.032 39.5157C147.032 35.6517 147.344 32.7837 147.968 30.9117C148.616 29.0157 149.432 28.0677 150.416 28.0677ZM157.118 51.5037C156.758 51.5037 156.458 51.3477 156.218 51.0357C156.002 50.7477 155.894 50.3277 155.894 49.7757C155.894 49.3677 156.062 48.6237 156.398 47.5437C156.734 46.4637 157.202 45.1557 157.802 43.6197C158.402 42.0597 159.098 40.3557 159.89 38.5077C160.706 36.6597 161.594 34.7517 162.554 32.7837C163.514 30.8157 164.51 28.8837 165.542 26.9877C166.574 25.0677 167.606 23.2797 168.638 21.6237C169.238 20.6877 169.79 20.0157 170.294 19.6077C170.798 19.1997 171.23 18.9957 171.59 18.9957C171.926 18.9957 172.19 19.1517 172.382 19.4637C172.598 19.7517 172.706 20.1717 172.706 20.7237C172.706 21.1317 172.526 21.8877 172.166 22.9917C171.83 24.0717 171.35 25.4037 170.726 26.9877C170.102 28.5477 169.37 30.2637 168.53 32.1357C167.714 34.0077 166.826 35.9517 165.866 37.9677C164.906 39.9597 163.91 41.9397 162.878 43.9077C161.846 45.8517 160.814 47.6757 159.782 49.3797C159.35 50.1237 158.894 50.6637 158.414 50.9997C157.958 51.3357 157.526 51.5037 157.118 51.5037ZM191.884 47.4357C191.236 47.4357 190.732 47.2197 190.372 46.7877C190.036 46.3317 189.808 45.7557 189.688 45.0597C189.568 44.3397 189.508 43.5837 189.508 42.7917L189.688 42.6477C189.448 43.6797 188.98 44.5677 188.284 45.3117C187.588 46.0557 186.784 46.6317 185.872 47.0397C184.96 47.4237 184.048 47.6157 183.136 47.6157C181.912 47.6157 180.796 47.3277 179.788 46.7517C178.78 46.1757 178 45.2877 177.448 44.0877C176.896 42.8157 176.464 41.2197 176.152 39.2997C175.84 37.3557 175.684 35.3637 175.684 33.3237C175.684 32.2197 175.732 31.1997 175.828 30.2637C175.924 29.3277 176.08 28.5597 176.296 27.9597C176.488 27.3357 176.776 26.8797 177.16 26.5917C177.544 26.2797 178.036 26.1237 178.636 26.1237C179.332 26.1237 179.872 26.3997 180.256 26.9517C180.664 27.4797 180.916 28.2237 181.012 29.1837C181.108 29.9757 181.168 30.9597 181.192 32.1357C181.24 33.2877 181.276 34.4517 181.3 35.6277C181.348 36.7797 181.408 37.7517 181.48 38.5437C181.624 39.9837 181.996 41.0517 182.596 41.7477C183.196 42.4197 183.928 42.7557 184.792 42.7557C186.064 42.7557 187.036 42.2757 187.708 41.3157C188.38 40.3557 188.716 39.0117 188.716 37.2837C188.716 36.4197 188.668 35.4477 188.572 34.3677C188.476 33.2637 188.368 32.1957 188.248 31.1637C188.152 30.1317 188.104 29.2797 188.104 28.6077C188.104 27.4797 188.296 26.6757 188.68 26.1957C189.064 25.6917 189.592 25.4397 190.264 25.4397C190.84 25.4397 191.32 25.5957 191.704 25.9077C192.112 26.2197 192.436 26.6517 192.676 27.2037C193.012 27.9237 193.3 28.9077 193.54 30.1557C193.78 31.4037 193.972 32.8197 194.116 34.4037C194.26 35.9877 194.332 37.6557 194.332 39.4077C194.332 42.0957 194.152 44.1117 193.792 45.4557C193.432 46.7757 192.796 47.4357 191.884 47.4357ZM199.72 47.9757C199.048 47.9757 198.472 47.7357 197.992 47.2557C197.512 46.7517 197.272 46.1277 197.272 45.3837C197.272 44.5197 197.62 43.5837 198.316 42.5757C199.012 41.5437 200.02 40.5357 201.34 39.5517C202.684 38.5677 204.28 37.7037 206.128 36.9597V36.8157C203.08 35.5197 200.836 34.0677 199.396 32.4597C197.98 30.8517 197.272 29.3757 197.272 28.0317C197.272 27.4797 197.392 27.0117 197.632 26.6277C197.896 26.2437 198.232 25.9437 198.64 25.7277C199.072 25.5117 199.516 25.4037 199.972 25.4037C200.956 25.4037 201.904 25.7757 202.816 26.5197C203.752 27.2397 204.664 28.2837 205.552 29.6517C206.44 30.9957 207.304 32.6157 208.144 34.5117H208.288C209.512 31.2237 210.784 28.8357 212.104 27.3477C213.448 25.8357 214.84 25.0797 216.28 25.0797C216.976 25.0797 217.516 25.3077 217.9 25.7637C218.284 26.1957 218.476 26.7477 218.476 27.4197C218.476 29.0037 217.792 30.5517 216.424 32.0637C215.056 33.5757 212.98 35.0037 210.196 36.3477V36.5277C212.764 37.9437 214.672 39.4197 215.92 40.9557C217.192 42.4677 217.828 43.7997 217.828 44.9517C217.828 45.6717 217.612 46.2477 217.18 46.6797C216.772 47.1117 216.28 47.3277 215.704 47.3277C214.696 47.3277 213.76 46.9557 212.896 46.2117C212.032 45.4677 211.216 44.4357 210.448 43.1157C209.704 41.7717 208.996 40.2357 208.324 38.5077H208.18C207.292 40.6917 206.368 42.4917 205.408 43.9077C204.472 45.2997 203.524 46.3317 202.564 47.0037C201.604 47.6517 200.656 47.9757 199.72 47.9757Z" fill="white"/>
</g>
<defs>
<filter id="filter0_d_20_8" x="0" y="0" width="341" height="78" filterUnits="userSpaceOnUse" color-interpolation-filters="sRGB">
<feFlood flood-opacity="0" result="BackgroundImageFix"/>
<feColorMatrix in="SourceAlpha" type="matrix" values="0 0 0 0 0 0 0 0 0 0 0 0 0 0 0 0 0 0 127 0" result="hardAlpha"/>
<feOffset dy="4"/>
<feGaussianBlur stdDeviation="2"/>
<feComposite in2="hardAlpha" operator="out"/>
<feColorMatrix type="matrix" values="0 0 0 0 0 0 0 0 0 0 0 0 0 0 0 0 0 0 0.25 0"/>
<feBlend mode="normal" in2="BackgroundImageFix" result="effect1_dropShadow_20_8"/>
<feBlend mode="normal" in="SourceGraphic" in2="effect1_dropShadow_20_8" result="shape"/>
</filter>
</defs>
</svg>
