<svg width="341" height="78" viewBox="0 0 341 78" fill="none" xmlns="http://www.w3.org/2000/svg">
<g filter="url(#filter0_d_1_21)">
<rect x="6" y="2" width="329" height="66" rx="8" fill="#F5A1E3" stroke="#F5A1E3" stroke-width="4"/>
<path d="M81.0508 33.4117C81.0508 30.6383 81.3708 28.6383 82.0108 27.4117C82.6774 26.185 83.5441 25.5717 84.6108 25.5717C85.2241 25.5717 85.6908 25.7983 86.0108 26.2517C86.3574 26.6783 86.5974 27.265 86.7308 28.0117C86.8641 28.7317 86.9308 29.545 86.9308 30.4517C86.9308 31.5983 86.9308 32.945 86.9308 34.4917C86.9574 36.0117 86.9841 37.585 87.0108 39.2117C87.0641 40.8117 87.1174 42.305 87.1708 43.6917H87.3308C88.1574 40.1983 88.9841 37.3317 89.8108 35.0917C90.6641 32.8517 91.5308 31.1983 92.4108 30.1317C93.3174 29.0383 94.2241 28.4917 95.1308 28.4917C96.1174 28.4917 97.0508 29.0383 97.9308 30.1317C98.8374 31.1983 99.7174 32.825 100.571 35.0117C101.451 37.1983 102.344 39.9583 103.251 43.2917H103.411C103.491 40.9983 103.544 38.585 103.571 36.0517C103.597 33.5183 103.611 31.1983 103.611 29.0917C103.611 27.5717 103.864 26.4517 104.371 25.7317C104.877 25.0117 105.584 24.6517 106.491 24.6517C107.637 24.6517 108.464 25.2517 108.971 26.4517C109.504 27.625 109.771 29.2117 109.771 31.2117C109.771 32.6783 109.691 34.2517 109.531 35.9317C109.397 37.585 109.197 39.185 108.931 40.7317C108.664 42.2783 108.344 43.625 107.971 44.7717C107.411 46.4783 106.784 47.7717 106.091 48.6517C105.424 49.5317 104.544 49.9717 103.451 49.9717C102.464 49.9717 101.477 49.3983 100.491 48.2517C99.5308 47.0783 98.6241 45.3317 97.7708 43.0117C96.9174 40.6917 96.1308 37.7983 95.4108 34.3317H95.2508C94.5574 37.6383 93.7308 40.4117 92.7708 42.6517C91.8374 44.865 90.8374 46.5317 89.7708 47.6517C88.7308 48.7717 87.6908 49.3317 86.6508 49.3317C85.5574 49.3317 84.6374 48.8383 83.8908 47.8517C83.1708 46.865 82.5708 45.345 82.0908 43.2917C81.8774 42.2517 81.6908 41.145 81.5308 39.9717C81.3708 38.7717 81.2508 37.5983 81.1708 36.4517C81.0908 35.305 81.0508 34.2917 81.0508 33.4117ZM124.394 49.9717C121.434 49.9717 119.074 49.5317 117.314 48.6517C115.554 47.7717 114.287 46.505 113.514 44.8517C112.741 43.1983 112.354 41.225 112.354 38.9317C112.354 36.025 112.887 33.5583 113.954 31.5317C115.047 29.4783 116.541 27.905 118.434 26.8117C120.354 25.7183 122.527 25.1717 124.954 25.1717C127.807 25.1717 129.901 25.8383 131.234 27.1717C132.567 28.4783 133.234 30.1983 133.234 32.3317C133.234 34.0383 132.781 35.5183 131.874 36.7717C130.994 37.9983 129.767 38.945 128.194 39.6117C126.621 40.2783 124.807 40.6117 122.754 40.6117C121.607 40.6117 120.501 40.465 119.434 40.1717C118.367 39.8783 117.407 39.4783 116.554 38.9717L117.514 37.2117C117.434 37.8517 117.394 38.4917 117.394 39.1317C117.394 40.9983 117.981 42.345 119.154 43.1717C120.327 43.9717 121.994 44.3717 124.154 44.3717C125.834 44.3717 127.181 44.225 128.194 43.9317C129.207 43.6383 130.061 43.3583 130.754 43.0917C131.447 42.7983 132.127 42.6517 132.794 42.6517C133.167 42.6517 133.501 42.7583 133.794 42.9717C134.114 43.1583 134.367 43.4383 134.554 43.8117C134.767 44.185 134.874 44.6383 134.874 45.1717C134.874 45.9717 134.474 46.745 133.674 47.4917C132.874 48.2117 131.687 48.8117 130.114 49.2917C128.567 49.745 126.661 49.9717 124.394 49.9717ZM122.074 36.8917C123.967 36.8917 125.487 36.4917 126.634 35.6917C127.781 34.8917 128.354 33.905 128.354 32.7317C128.354 31.7983 128.034 31.0383 127.394 30.4517C126.781 29.8383 125.807 29.5317 124.474 29.5317C123.221 29.5317 122.087 29.7717 121.074 30.2517C120.087 30.705 119.314 31.305 118.754 32.0517C118.194 32.7983 117.914 33.6117 117.914 34.4917C117.914 35.265 118.274 35.865 118.994 36.2917C119.741 36.6917 120.767 36.8917 122.074 36.8917ZM141.429 50.0517C140.843 50.0517 140.363 49.8517 139.989 49.4517C139.643 49.0517 139.363 48.4783 139.149 47.7317C138.936 46.6383 138.749 45.2117 138.589 43.4517C138.456 41.665 138.389 39.7583 138.389 37.7317C138.389 36.585 138.416 35.2917 138.469 33.8517C138.523 32.4117 138.589 30.9583 138.669 29.4917C138.776 27.9983 138.883 26.6117 138.989 25.3317C139.123 24.0517 139.256 23.0117 139.389 22.2117C139.603 21.0383 139.909 20.1183 140.309 19.4517C140.736 18.7583 141.403 18.4117 142.309 18.4117C143.243 18.4117 143.923 18.7717 144.349 19.4917C144.776 20.185 144.989 21.0517 144.989 22.0917C144.989 23.265 144.896 24.6517 144.709 26.2517C144.549 27.8517 144.296 29.4783 143.949 31.1317L143.149 32.0917C143.443 30.9717 143.923 29.945 144.589 29.0117C145.256 28.0783 146.096 27.345 147.109 26.8117C148.123 26.2517 149.296 25.9717 150.629 25.9717C153.243 25.9717 155.323 26.905 156.869 28.7717C158.443 30.6117 159.229 33.4917 159.229 37.4117C159.229 40.1583 158.816 42.4517 157.989 44.2917C157.189 46.1317 156.083 47.5183 154.669 48.4517C153.283 49.3583 151.696 49.8117 149.909 49.8117C148.229 49.8117 146.776 49.3183 145.549 48.3317C144.349 47.345 143.576 45.9183 143.229 44.0517L143.789 44.4917C143.683 46.4117 143.416 47.825 142.989 48.7317C142.589 49.6117 142.069 50.0517 141.429 50.0517ZM148.749 45.1717C150.083 45.1717 151.256 44.5717 152.269 43.3717C153.283 42.1717 153.789 40.2917 153.789 37.7317C153.789 35.5983 153.389 33.865 152.589 32.5317C151.816 31.1983 150.509 30.5317 148.669 30.5317C147.176 30.5317 145.976 31.1317 145.069 32.3317C144.163 33.505 143.709 35.2917 143.709 37.6917C143.709 39.8783 144.163 41.6783 145.069 43.0917C145.976 44.4783 147.203 45.1717 148.749 45.1717ZM173.392 24.6117C175.765 24.6117 177.472 24.9583 178.512 25.6517C179.552 26.345 180.072 27.2383 180.072 28.3317C180.072 28.9717 179.845 29.505 179.392 29.9317C178.965 30.3317 178.352 30.5317 177.552 30.5317C176.725 30.5317 175.859 30.4117 174.952 30.1717C174.072 29.9317 173.045 29.8117 171.872 29.8117C170.512 29.8117 169.499 30.0783 168.832 30.6117C168.165 31.145 167.832 31.825 167.832 32.6517C167.832 33.425 168.125 34.0383 168.712 34.4917C169.325 34.9183 170.485 35.2383 172.192 35.4517C174.085 35.665 175.645 36.0117 176.872 36.4917C178.125 36.945 179.059 37.6383 179.672 38.5717C180.285 39.4783 180.592 40.7317 180.592 42.3317C180.592 44.865 179.699 46.745 177.912 47.9717C176.125 49.1983 173.659 49.8117 170.512 49.8117C168.512 49.8117 166.925 49.6517 165.752 49.3317C164.579 49.0117 163.725 48.5583 163.192 47.9717C162.685 47.385 162.432 46.6917 162.432 45.8917C162.432 45.1983 162.659 44.665 163.112 44.2917C163.592 43.8917 164.152 43.6917 164.792 43.6917C165.405 43.6917 166.059 43.7717 166.752 43.9317C167.445 44.065 168.179 44.2117 168.952 44.3717C169.725 44.5317 170.525 44.6117 171.352 44.6117C174.019 44.6117 175.352 43.785 175.352 42.1317C175.352 41.5717 175.219 41.1183 174.952 40.7717C174.685 40.425 174.205 40.145 173.512 39.9317C172.819 39.6917 171.805 39.505 170.472 39.3717C168.872 39.2117 167.485 38.945 166.312 38.5717C165.139 38.1717 164.232 37.5317 163.592 36.6517C162.952 35.745 162.632 34.505 162.632 32.9317C162.632 30.4517 163.565 28.4517 165.432 26.9317C167.299 25.385 169.952 24.6117 173.392 24.6117ZM188.159 18.9717C189.226 18.9717 189.986 19.265 190.439 19.8517C190.919 20.4383 191.159 21.1183 191.159 21.8917C191.159 22.8517 190.866 23.5983 190.279 24.1317C189.719 24.6383 188.919 24.8917 187.879 24.8917C186.866 24.8917 186.106 24.6117 185.599 24.0517C185.093 23.465 184.839 22.785 184.839 22.0117C184.839 20.9983 185.146 20.2383 185.759 19.7317C186.373 19.225 187.173 18.9717 188.159 18.9717ZM188.399 27.8917C189.253 27.8917 189.919 28.6917 190.399 30.2917C190.906 31.8917 191.159 34.4383 191.159 37.9317C191.159 42.225 190.853 45.3183 190.239 47.2117C189.626 49.105 188.693 50.0517 187.439 50.0517C186.479 50.0517 185.773 49.3583 185.319 47.9717C184.866 46.5583 184.639 44.105 184.639 40.6117C184.639 36.3183 184.986 33.1317 185.679 31.0517C186.399 28.945 187.306 27.8917 188.399 27.8917ZM202.805 25.5717H202.005C201.925 24.3983 201.952 23.2917 202.085 22.2517C202.219 21.185 202.499 20.3317 202.925 19.6917C203.379 19.025 204.019 18.6917 204.845 18.6917C205.592 18.6917 206.139 18.9317 206.485 19.4117C206.832 19.8917 207.005 20.5583 207.005 21.4117C207.005 23.0917 206.685 24.5317 206.045 25.7317L205.325 25.6517C206.765 25.145 208.392 24.8917 210.205 24.8917C211.352 24.8917 212.259 25.1183 212.925 25.5717C213.619 25.9983 213.965 26.7317 213.965 27.7717C213.965 28.7583 213.565 29.505 212.765 30.0117C211.965 30.5183 210.965 30.7717 209.765 30.7717C209.045 30.7717 208.272 30.745 207.445 30.6917C206.645 30.6117 205.859 30.4917 205.085 30.3317L205.765 29.4917C206.005 30.505 206.232 31.665 206.445 32.9717C206.685 34.2517 206.899 35.585 207.085 36.9717C207.272 38.3583 207.419 39.705 207.525 41.0117C207.632 42.3183 207.685 43.4917 207.685 44.5317C207.685 46.2383 207.419 47.585 206.885 48.5717C206.352 49.5583 205.565 50.0517 204.525 50.0517C203.699 50.0517 203.045 49.7983 202.565 49.2917C202.112 48.785 201.779 48.145 201.565 47.3717C201.379 46.5717 201.259 45.745 201.205 44.8917C201.179 44.0383 201.165 43.265 201.165 42.5717C201.165 41.3983 201.219 40.0783 201.325 38.6117C201.432 37.1183 201.579 35.585 201.765 34.0117C201.979 32.4383 202.219 30.9183 202.485 29.4517L203.285 30.1317C201.925 30.825 200.245 31.1717 198.245 31.1717C197.019 31.1717 196.072 30.945 195.405 30.4917C194.739 30.0383 194.405 29.3317 194.405 28.3717C194.405 27.3317 194.779 26.5317 195.525 25.9717C196.272 25.385 197.272 25.0917 198.525 25.0917C199.352 25.0917 200.125 25.145 200.845 25.2517C201.592 25.3317 202.245 25.4383 202.805 25.5717ZM228.027 49.9717C225.067 49.9717 222.707 49.5317 220.947 48.6517C219.187 47.7717 217.92 46.505 217.147 44.8517C216.373 43.1983 215.987 41.225 215.987 38.9317C215.987 36.025 216.52 33.5583 217.587 31.5317C218.68 29.4783 220.173 27.905 222.067 26.8117C223.987 25.7183 226.16 25.1717 228.587 25.1717C231.44 25.1717 233.533 25.8383 234.867 27.1717C236.2 28.4783 236.867 30.1983 236.867 32.3317C236.867 34.0383 236.413 35.5183 235.507 36.7717C234.627 37.9983 233.4 38.945 231.827 39.6117C230.253 40.2783 228.44 40.6117 226.387 40.6117C225.24 40.6117 224.133 40.465 223.067 40.1717C222 39.8783 221.04 39.4783 220.187 38.9717L221.147 37.2117C221.067 37.8517 221.027 38.4917 221.027 39.1317C221.027 40.9983 221.613 42.345 222.787 43.1717C223.96 43.9717 225.627 44.3717 227.787 44.3717C229.467 44.3717 230.813 44.225 231.827 43.9317C232.84 43.6383 233.693 43.3583 234.387 43.0917C235.08 42.7983 235.76 42.6517 236.427 42.6517C236.8 42.6517 237.133 42.7583 237.427 42.9717C237.747 43.1583 238 43.4383 238.187 43.8117C238.4 44.185 238.507 44.6383 238.507 45.1717C238.507 45.9717 238.107 46.745 237.307 47.4917C236.507 48.2117 235.32 48.8117 233.747 49.2917C232.2 49.745 230.293 49.9717 228.027 49.9717ZM225.707 36.8917C227.6 36.8917 229.12 36.4917 230.267 35.6917C231.413 34.8917 231.987 33.905 231.987 32.7317C231.987 31.7983 231.667 31.0383 231.027 30.4517C230.413 29.8383 229.44 29.5317 228.107 29.5317C226.853 29.5317 225.72 29.7717 224.707 30.2517C223.72 30.705 222.947 31.305 222.387 32.0517C221.827 32.7983 221.547 33.6117 221.547 34.4917C221.547 35.265 221.907 35.865 222.627 36.2917C223.373 36.6917 224.4 36.8917 225.707 36.8917ZM252.142 24.6117C254.515 24.6117 256.222 24.9583 257.262 25.6517C258.302 26.345 258.822 27.2383 258.822 28.3317C258.822 28.9717 258.595 29.505 258.142 29.9317C257.715 30.3317 257.102 30.5317 256.302 30.5317C255.475 30.5317 254.609 30.4117 253.702 30.1717C252.822 29.9317 251.795 29.8117 250.622 29.8117C249.262 29.8117 248.249 30.0783 247.582 30.6117C246.915 31.145 246.582 31.825 246.582 32.6517C246.582 33.425 246.875 34.0383 247.462 34.4917C248.075 34.9183 249.235 35.2383 250.942 35.4517C252.835 35.665 254.395 36.0117 255.622 36.4917C256.875 36.945 257.809 37.6383 258.422 38.5717C259.035 39.4783 259.342 40.7317 259.342 42.3317C259.342 44.865 258.449 46.745 256.662 47.9717C254.875 49.1983 252.409 49.8117 249.262 49.8117C247.262 49.8117 245.675 49.6517 244.502 49.3317C243.329 49.0117 242.475 48.5583 241.942 47.9717C241.435 47.385 241.182 46.6917 241.182 45.8917C241.182 45.1983 241.409 44.665 241.862 44.2917C242.342 43.8917 242.902 43.6917 243.542 43.6917C244.155 43.6917 244.809 43.7717 245.502 43.9317C246.195 44.065 246.929 44.2117 247.702 44.3717C248.475 44.5317 249.275 44.6117 250.102 44.6117C252.769 44.6117 254.102 43.785 254.102 42.1317C254.102 41.5717 253.969 41.1183 253.702 40.7717C253.435 40.425 252.955 40.145 252.262 39.9317C251.569 39.6917 250.555 39.505 249.222 39.3717C247.622 39.2117 246.235 38.945 245.062 38.5717C243.889 38.1717 242.982 37.5317 242.342 36.6517C241.702 35.745 241.382 34.505 241.382 32.9317C241.382 30.4517 242.315 28.4517 244.182 26.9317C246.049 25.385 248.702 24.6117 252.142 24.6117Z" fill="white"/>
</g>
<defs>
<filter id="filter0_d_1_21" x="0" y="0" width="341" height="78" filterUnits="userSpaceOnUse" color-interpolation-filters="sRGB">
<feFlood flood-opacity="0" result="BackgroundImageFix"/>
<feColorMatrix in="SourceAlpha" type="matrix" values="0 0 0 0 0 0 0 0 0 0 0 0 0 0 0 0 0 0 127 0" result="hardAlpha"/>
<feOffset dy="4"/>
<feGaussianBlur stdDeviation="2"/>
<feComposite in2="hardAlpha" operator="out"/>
<feColorMatrix type="matrix" values="0 0 0 0 0 0 0 0 0 0 0 0 0 0 0 0 0 0 0.25 0"/>
<feBlend mode="normal" in2="BackgroundImageFix" result="effect1_dropShadow_1_21"/>
<feBlend mode="normal" in="SourceGraphic" in2="effect1_dropShadow_1_21" result="shape"/>
</filter>
</defs>
</svg>
